Patient4_TMGait_0pt7_01_right_21_GRF.mot
version=1
nRows=58
nColumns=19
inDegrees=no
endheader
time	F1x	F1y	F1z	M1x	M1y	M1z	F2x	F2y	F2z	M2x	M2y	M2z	EC1x	EC1y	EC1z	EC2x	EC2y	EC2z
23.54	34.0777	679.0793	51.1976	-223.82	-45.9554	749.7218	-1.6348	-6.8647	-6.4565	0.094528	3.7499	-19.5162	-0.0592	0.0182	-0.0073	-0.0462	0.0165	0.9585
23.5517	28.4553	681.0939	52.5019	-224.2883	-48.0756	745.3334	-1.3426	-3.6259	-4.2825	0.46693	2.6196	-11.8716	-0.0592	0.0182	-0.0073	-0.0462	0.0165	0.9585
23.5634	23.8381	684.6537	53.7053	-225.0988	-49.8628	742.803	-1.0501	-0.88281	-2.4941	0.80648	1.681	-5.4058	-0.0592	0.0182	-0.0073	-0.0462	0.0165	0.9585
23.5751	20.4215	689.8786	54.8435	-226.2907	-51.3204	742.5886	-0.79987	1.2428	-1.1674	1.0945	0.97849	-0.44513	-0.0592	0.0182	-0.0073	-0.0462	0.0165	0.9585
23.5869	18.1119	696.6049	55.9429	-227.8281	-52.5075	744.6067	-0.61014	2.7723	-0.27623	1.3255	0.50075	3.0552	-0.0592	0.0182	-0.0073	-0.0462	0.0165	0.9585
23.5986	16.6922	704.415	57.0279	-229.5999	-53.5025	748.3893	-0.48372	3.7836	0.25663	1.4965	0.21157	5.2958	-0.0592	0.0182	-0.0073	-0.0462	0.0165	0.9585
23.6103	15.9255	712.705	58.0866	-231.4409	-54.3469	753.1627	-0.42748	4.3584	0.52607	1.6009	0.06702	6.5173	-0.0592	0.0182	-0.0073	-0.0462	0.0165	0.9585
23.622	15.6405	720.8201	59.1249	-233.1701	-55.0802	758.0853	-0.42801	4.5563	0.61318	1.6246	0.030483	6.9439	-0.0592	0.0182	-0.0073	-0.0462	0.0165	0.9585
23.6337	15.7559	728.1579	60.1206	-234.6225	-55.6934	762.376	-0.4928	4.3825	0.59318	1.5411	0.067464	6.7114	-0.0592	0.0182	-0.0073	-0.0462	0.0165	0.9585
23.6454	16.2198	734.2555	61.0646	-235.6711	-56.1844	765.4331	-0.60599	3.7891	0.50654	1.3078	0.1617	5.8437	-0.0592	0.0182	-0.0073	-0.0462	0.0165	0.9585
23.6571	17.0701	738.8106	61.9461	-236.2357	-56.5242	766.8622	-0.74308	2.6961	0.40312	0.87494	0.27721	4.3028	-0.0592	0.0182	-0.0073	-0.0462	0.0165	0.9585
23.6689	18.3448	741.7512	62.7835	-236.3027	-56.7057	766.5406	-0.86345	0.98314	0.29162	0.18626	0.39806	1.9811	-0.0592	0.0182	-0.0073	-0.0462	0.0165	0.9585
23.6806	20.079	743.1523	63.6225	-235.9003	-56.7507	764.5012	-0.91928	-1.4051	0.1981	-0.78764	0.4793	-1.1648	-0.0592	0.0182	-0.0073	-0.0462	0.0165	0.9585
23.6923	22.3058	743.2441	64.5054	-235.0896	-56.6819	760.9619	-0.84027	-4.4579	0.12316	-2.0427	0.48649	-5.1106	-0.0592	0.0182	-0.0073	-0.0462	0.0165	0.9585
23.704	25.047	742.3004	65.4779	-233.937	-56.5307	756.1969	-0.54185	-7.9718	0.091523	-3.495	0.35189	-9.6055	-0.0592	0.0182	-0.0073	-0.0462	0.0165	0.9585
23.7157	28.2443	740.5439	66.5522	-232.4904	-56.3174	750.4707	0.093946	-11.4634	0.11644	-4.9402	0.005941	-14.0638	-0.0592	0.0182	-0.0073	-0.0462	0.0165	0.9585
23.7274	31.8179	738.1123	67.7333	-230.7702	-56.0615	743.9832	1.179	-14.0444	0.22878	-6.0012	-0.63421	-17.3679	-0.0592	0.0182	-0.0073	-0.0462	0.0165	0.9585
23.7391	35.6045	735.0363	68.9941	-228.7714	-55.779	736.861	2.8258	-14.2962	0.44785	-6.0747	-1.6349	-17.7151	-0.0592	0.0182	-0.0073	-0.0462	0.0165	0.9585
23.7509	39.4529	731.308	70.2876	-226.4898	-55.4728	729.1716	5.074	-10.1715	0.79945	-4.2928	-3.0363	-12.504	-0.0592	0.0182	-0.0073	-0.0462	0.0165	0.9585
23.7626	43.2313	726.8749	71.5135	-223.9216	-55.096	720.9385	7.8556	0.97956	1.3053	0.46774	-4.8165	1.6407	-0.0592	0.0182	-0.0073	-0.0462	0.0165	0.9585
23.7743	46.8531	721.5014	72.5353	-221.0271	-54.5615	711.9706	10.8921	22.268	1.9593	9.5195	-6.8274	28.6951	-0.0592	0.0182	-0.0073	-0.0462	0.0165	0.9585
23.786	50.224	714.6686	73.153	-217.6959	-53.7324	701.8069	13.6265	56.7932	2.7229	24.1681	-8.7504	72.6094	-0.0592	0.0182	-0.0073	-0.0462	0.0165	0.9585
23.7977	53.2632	705.3526	73.1138	-213.6786	-52.4206	689.487	15.0709	106.8666	3.4931	45.3786	-10.0085	136.3397	-0.0592	0.0182	-0.0073	-0.0462	0.0165	0.9585
23.8094	55.8149	691.9966	72.0992	-208.5727	-50.3944	673.5545	13.7672	172.6989	4.0668	73.2222	-9.7005	220.1695	-0.0592	0.0182	-0.0073	-0.0462	0.0165	0.9585
23.8211	57.7144	672.6047	69.7909	-201.843	-47.4187	652.1265	7.7884	250.6786	4.1117	106.148	-6.6031	319.5252	-0.0592	0.0182	-0.0073	-0.0462	0.0165	0.9585
23.8329	58.7154	645.1436	65.9444	-192.926	-43.344	623.3032	-4.1264	331.9768	3.0495	140.3958	0.47154	423.1821	-0.0592	0.0182	-0.0073	-0.0462	0.0165	0.9585
23.8446	58.5329	608.0544	60.5252	-181.3779	-38.2257	585.6146	-19.7331	404.8067	-0.52829	170.9455	12.122	516.0794	-0.0592	0.0182	-0.0073	-0.0462	0.0165	0.9585
23.8563	56.8488	560.9079	53.7561	-167.0564	-32.3709	538.7069	-35.0882	461.6398	-6.9502	194.5953	26.8909	588.2548	-0.0592	0.0182	-0.0073	-0.0462	0.0165	0.9585
23.868	53.4712	504.714	46.1616	-150.2087	-26.3151	483.588	-47.9614	502.6782	-15.1105	211.4086	42.5925	639.559	-0.0592	0.0182	-0.0073	-0.0462	0.0165	0.9585
23.8797	48.4346	441.5984	38.4252	-131.3952	-20.6604	422.2807	-57.28	532.4883	-24.2334	223.3556	57.7477	675.677	-0.0592	0.0182	-0.0073	-0.0462	0.0165	0.9585
23.8914	41.9094	374.5931	31.0773	-111.4528	-15.8282	357.6466	-62.9685	556.5119	-32.6472	232.8274	70.459	703.4924	-0.0592	0.0182	-0.0073	-0.0462	0.0165	0.9585
23.9031	34.1984	307.141	24.4899	-91.3664	-12.0639	292.9197	-65.6729	578.6455	-39.8676	241.549	80.3107	728.1628	-0.0592	0.0182	-0.0073	-0.0462	0.0165	0.9585
23.9149	25.7955	242.7945	18.8374	-72.177	-9.38	231.4243	-66.0315	601.1818	-45.1636	250.56	86.8259	752.6454	-0.0592	0.0182	-0.0073	-0.0462	0.0165	0.9585
23.9266	17.4254	184.573	14.1747	-54.7908	-7.6123	175.9468	-64.7634	625.2322	-49.1856	260.2946	91.0067	778.4814	-0.0592	0.0182	-0.0073	-0.0462	0.0165	0.9585
23.9383	9.8515	134.4946	10.4691	-39.8263	-6.4997	128.3214	-62.3645	650.5802	-52.1858	270.6418	93.4712	805.47	-0.0592	0.0182	-0.0073	-0.0462	0.0165	0.9585
23.95	3.6393	93.3421	7.5727	-27.537	-5.7268	89.2066	-59.5514	675.9867	-54.9414	281.017	95.3788	832.3099	-0.0592	0.0182	-0.0073	-0.0462	0.0165	0.9585
23.9617	-0.97629	60.9544	5.3347	-17.885	-5.0769	58.4291	-56.8743	699.9161	-57.6092	290.7559	97.1858	857.2349	-0.0592	0.0182	-0.0073	-0.0462	0.0165	0.9585
23.9734	-3.9301	36.5692	3.5969	-10.643	-4.3844	35.253	-54.7903	721.3096	-60.2873	299.3743	99.1718	879.1128	-0.0592	0.0182	-0.0073	-0.0462	0.0165	0.9585
23.9851	-5.3102	19.1231	2.2483	-5.4844	-3.5759	18.6846	-53.3531	739.4527	-62.7175	306.5763	101.0791	897.1109	-0.0592	0.0182	-0.0073	-0.0462	0.0165	0.9585
23.9969	-5.3387	7.4792	1.2134	-2.0598	-2.6535	7.6193	-52.5347	753.9903	-64.6541	312.202	102.5997	910.8455	-0.0592	0.0182	-0.0073	-0.0462	0.0165	0.9585
24.0086	-4.5651	0.51701	0.47397	-0.02564	-1.7667	0.99048	-52.0774	764.5204	-66.0264	316.0881	103.5366	919.8264	-0.0592	0.0182	-0.0073	-0.0462	0.0165	0.9585
24.0203	-3.4576	-2.9649	0.0104	0.9765	-1.0383	-2.3439	-51.8477	770.7619	-66.7602	318.1083	103.754	923.7622	-0.0592	0.0182	-0.0073	-0.0462	0.0165	0.9585
24.032	-2.3216	-4.1023	-0.24965	1.2838	-0.49011	-3.4463	-51.6476	772.7146	-67.0269	318.2588	103.3644	922.628	-0.0592	0.0182	-0.0073	-0.0462	0.0165	0.9585
24.0437	-1.3156	-3.8466	-0.35184	1.1776	-0.12543	-3.211	-51.3732	770.987	-66.86	316.7803	102.3981	917.1325	-0.0592	0.0182	-0.0073	-0.0462	0.0165	0.9585
24.0554	-0.51935	-2.8806	-0.35522	0.86199	0.089263	-2.2972	-50.8595	766.5208	-66.4773	314.0713	101.0518	908.334	-0.0592	0.0182	-0.0073	-0.0462	0.0165	0.9585
24.0671	0.052649	-1.6794	-0.29803	0.47787	0.18969	-1.1625	-50.0593	760.5615	-65.9168	310.6536	99.3838	897.6503	-0.0592	0.0182	-0.0073	-0.0462	0.0165	0.9585
24.0789	0.41987	-0.52717	-0.21434	0.1084	0.21571	-0.065178	-48.8861	754.2631	-65.3482	307.0221	97.5586	886.3642	-0.0592	0.0182	-0.0073	-0.0462	0.0165	0.9585
24.0906	0.63274	0.45349	-0.1233	-0.20975	0.19956	0.86819	-47.3717	748.656	-64.7787	303.6221	95.6191	875.6568	-0.0592	0.0182	-0.0073	-0.0462	0.0165	0.9585
24.1023	0.72755	1.2193	-0.042071	-0.46256	0.16428	1.6001	-45.545	744.456	-64.3024	300.7781	93.6929	866.3254	-0.0592	0.0182	-0.0073	-0.0462	0.0165	0.9585
24.114	0.75406	1.7897	0.023027	-0.6547	0.1266	2.1408	-43.5373	742.0962	-63.9199	298.7011	91.8412	858.8837	-0.0592	0.0182	-0.0073	-0.0462	0.0165	0.9585
24.1257	0.73514	2.1989	0.073423	-0.79581	0.086765	2.5327	-41.4182	741.6949	-63.6665	297.4816	90.1375	853.4743	-0.0592	0.0182	-0.0073	-0.0462	0.0165	0.9585
24.1374	0.69332	2.487	0.11161	-0.89633	0.048313	2.8172	-39.2914	743.2123	-63.5481	297.1344	88.626	850.067	-0.0592	0.0182	-0.0073	-0.0462	0.0165	0.9585
24.1491	0.64126	2.6923	0.13339	-0.9658	0.018018	3.0438	-37.1533	746.3878	-63.5431	297.5811	87.2857	848.3461	-0.0592	0.0182	-0.0073	-0.0462	0.0165	0.9585
24.1609	0.5811	2.8093	0.14194	-1.0019	-0.0074779	3.211	-34.9964	750.7924	-63.6212	298.6578	86.0652	847.8364	-0.0592	0.0182	-0.0073	-0.0462	0.0165	0.9585
24.1726	0.51235	2.835	0.13732	-1.0028	-0.030708	3.2969	-32.7417	755.8157	-63.6665	300.1209	84.8076	847.8288	-0.0592	0.0182	-0.0073	-0.0462	0.0165	0.9585
24.1843	0.42567	2.7181	0.13228	-0.95246	-0.067296	3.2327	-30.3533	760.7662	-63.6018	301.6824	83.398	847.5554	-0.0592	0.0182	-0.0073	-0.0462	0.0165	0.9585
24.196	0.31485	2.3912	0.13468	-0.82915	-0.12597	2.9175	-27.7398	764.9505	-63.3098	303.0515	81.6695	846.2326	-0.0592	0.0182	-0.0073	-0.0462	0.0165	0.9585
24.2077	0.16449	1.7641	0.1531	-0.6044	-0.21609	2.2292	-24.8621	767.7163	-62.8116	303.9471	79.6041	843.165	-0.0592	0.0182	-0.0073	-0.0462	0.0165	0.9585
